<?xml version="1.0" encoding="utf-8"?>
<!-- Generator: Adobe Illustrator 22.1.0, SVG Export Plug-In . SVG Version: 6.00 Build 0)  -->
<svg version="1.1" id="레이어_1" xmlns="http://www.w3.org/2000/svg" xmlns:xlink="http://www.w3.org/1999/xlink" x="0px"
     y="0px" viewBox="0 0 687.5 112.9" style="enable-background:new 0 0 687.5 112.9;" xml:space="preserve">
<style type="text/css">
	.st0{fill:#009FE8;}
	.st1{fill:#1D2087;}
</style>
  <g>
	<g>
		<g>
			<path class="st0" d="M163.2,10.6c0.3-1.3,0.5-2.9-1.8-2.4c-2.4,0.8-17.6,4-25.3,6.1c-7.4,2.1-22.1,6.8-34.7,11.8
				c-12.6,5-27.4,11.6-34.7,15.5c-4.5-5-14.5-17.1-17.6-21.6C45.8,15.6,37.2,4,35.8,1.9c-1.3-1.8-2.6-2.4-4.2-1.6
				c-1.8,0.8-3.7,5.5-3.4,8.2c0,2.9,0.5,7.4,2.4,9.5c1.8,2.4,10.3,13.7,12.4,16.6c2.4,3.2,10,12.4,11.3,14
				c-1.3,1-17.1,10.5-23.4,14.7C24.5,67.5,5.1,81.2,2.9,83c-1.8,2.1-3.4,4.2-2.1,6.3c1.3,2.4,4.2,6.1,6.1,6.8
				c2.1,0.8,4.7,1.1,6.6-0.5c1.8-1.3,13.9-10.5,18.7-13.7c4.7-3.2,16.3-11.1,19.5-13.2c3.2-2.4,11.6-7.4,13.4-8.2
				c1.8,1.8,9.2,9.7,14.7,14.5C85,79.9,97.7,91.4,109.2,98c11.8,6.6,24.2,12.4,38.4,14.2c13.7,1.6,26,0.3,32.6-2.4
				c2.6-1.1,4.7-1.8,5-2.4c0.3-0.5,1.6-2.6,1.1-3.4c-0.3-1.1-0.8-1.6-1.8-1.1c-1.6,1.1-8.2,2.4-14.2,2.4c-6.1-0.3-14.7-0.8-22.1-3.2
				c-8.2-2.6-20.8-7.6-30.5-13.9C106.9,81.4,96.6,73,91.6,68C85.6,62.2,80.6,57,77.1,53c4.7-2.6,14.7-9,22.6-12.9
				c7.9-4.2,21.3-10.8,31.8-14.5c10.3-3.7,21.6-7.1,23.9-7.9c2.6-0.5,3.9-1.1,5-2.1C161.6,14.6,162.7,12.5,163.2,10.6L163.2,10.6
				L163.2,10.6z"/>
      <path class="st1" d="M132.5,74.4c-0.3,1-0.5,1.9-0.5,2.5c0,0.4,0,1.8,3.5,1.8c0.5,0,1.2-0.1,2.1-0.2c1-0.2,1.7-0.2,2.2-0.2
				c0.6,0,1.6,0.1,2.8,0.2c1.2,0.1,2.2,0.2,2.8,0.2c6.8,0,12.5-1.5,17.1-4.5c4.5-2.9,6.7-6.2,6.7-9.8c0-4.1-3.5-7.1-10.6-8.8
				c-0.2-0.1-0.4-0.3-0.4-0.5c0-0.2,0.1-0.5,0.4-0.5c8.7-3.2,13.1-7.3,13.1-12.1c0-4.6-4.6-6.9-13.7-6.9c-7.7,0-13.9,1.1-18.5,3.1
				c0.6,0.9,0.9,1.8,0.9,2.8C140.5,46.1,137.8,56.9,132.5,74.4z M151.1,39.7c0-0.2,0.2-0.4,0.4-0.4c1.7-0.4,3.4-0.6,5-0.6
				c4.6,0,5.5,2.7,5.5,5c0,6.1-4.6,9.8-13.8,11c-0.2,0-0.4,0-0.5-0.2c-0.1-0.1-0.2-0.3-0.1-0.5L151.1,39.7z M146.5,58.8
				c0.1-0.2,0.2-0.4,0.5-0.4c1.6-0.2,3.4-0.5,5.4-1c0.1,0,0.2,0,0.3,0c4.2,1.3,6.4,3.9,6.4,7.8c0,2.6-0.9,4.9-2.6,6.9
				c-1.7,2-4,3-6.8,3c-1.7,0-3.9-0.3-6.4-0.9c-0.1,0-0.3-0.1-0.3-0.3c-0.1-0.1-0.1-0.3-0.1-0.4L146.5,58.8z"/>
      <path class="st1" d="M186.6,64.8l4.2-16.9c0-0.2,0.2-0.8,1.6-4.8c0.6-1.9,1-3.4,1-4.6c0-0.6,0-2.4-4.3-2.4
				c-2.2,0-4.6,0.4-7.2,1.1c0.4,0.9,0.7,1.8,0.7,2.8c0,1.5-0.6,4.4-1.7,9l-4.3,17.3c-1,4.2-1.6,7-1.6,8.4c0,2.7,1.8,4,5.6,4
				c2,0,4.1-0.5,6.2-1.5c-1-1.3-1.6-2.8-1.6-4.6C185.4,70.7,185.8,68.1,186.6,64.8z"/>
      <path class="st1" d="M231.1,55.1c0,0,1.3-4,1.3-4c0.5-1.6,0.7-2.9,0.7-3.9c0-0.6,0-2.6-4.9-2.6c-1.9,0-3.7,0.2-5.5,0.6
				c0.2,0.7,0.4,1.3,0.4,1.9c0,3.8-2.3,8.9-7,15.6c-6.3,8.9-8.3,10.1-9.3,10.1c-0.5,0-1.6-0.2-1.6-1.9c0-2.4,1.5-8.7,4.5-19.5
				c0.7-2.5,0.9-3.6,0.9-4c0-1.1-0.4-2.7-4.3-2.7c-1.8,0-4.1,0.4-6.5,1c0.3,0.7,0.5,1.4,0.5,2.2c0,2.8-0.9,7.1-2.7,13.3
				c-1.8,6-2.7,10.3-2.7,12.9c0,3.3,2,4.9,6.1,4.9c5.5,0,11.1-4.5,16.7-13.4c0.1-0.2,0.4-0.3,0.7-0.2c0.2,0.1,0.4,0.4,0.3,0.6
				c-0.6,2.8-0.9,5.3-0.9,7.4c0,3.6,1.9,5.3,6.1,5.3c2.1,0,4-0.6,5.7-1.6c-0.9-1.8-1.4-3.8-1.4-6.1
				C228.1,67.1,229.2,61.8,231.1,55.1z"/>
      <path class="st1" d="M246.3,68c0-0.9,0.1-2.1,0.3-3.5c0-0.3,0.3-0.5,0.5-0.5c6.6-0.1,12.1-1.5,16.5-4.1c4.3-2.6,6.4-5.8,6.4-10.1
				c0-3.8-2.8-5.6-8.6-5.6c-7.2,0-13.4,2.6-18.6,7.7c-5.1,5.1-7.7,10.9-7.7,17.2c0,6.6,4.7,9.8,14.3,9.8c4,0,8.1-0.7,12.1-2.2
				c3.8-1.4,5.8-3.1,5.8-5c0-0.4-0.2-1-0.5-1.5c-5.1,3.2-9.6,4.8-13.5,4.8C248.7,75,246.3,72.6,246.3,68z M257,47.8
				c1.7,0,3.7,0.7,3.7,4c0,5.8-4.4,8.8-13,8.9c-0.2,0-0.3-0.1-0.4-0.2c-0.1-0.1-0.1-0.3-0.1-0.5C249.5,52,252.8,47.8,257,47.8z"/>
      <path class="st1" d="M292.7,43.2c0,3.7,1.6,8.8,4.6,15c0.1,0.2,0.1,0.5-0.1,0.7c-3.1,2.5-6.5,5.8-10.1,9.8
				c-4.4,4.9-5.4,7.1-5.4,8c0,1.2,1.4,1.7,4.3,1.7c1.3,0,2.7-0.2,4.1-0.6c0-0.1,0-0.2,0-0.3c0-4.3,3.2-9.3,9.4-14.8
				c0.1-0.1,0.3-0.2,0.5-0.1c0.2,0,0.3,0.2,0.4,0.3c4.6,10.3,9,15.6,13.2,15.6c2.9,0,5.7-1.8,8.4-5.3c-3.8-1.4-8.1-6.6-13-16
				c-0.1-0.2-0.1-0.5,0.2-0.7c12-8.7,18.1-15,18.1-18.7c0-0.5,0-1.9-3.8-1.9c-1.7,0-3.5,0.4-5.4,1c0.2,0.5,0.4,1,0.4,1.5
				c0,2.4-3.6,7.1-11,14.3c-0.1,0.1-0.3,0.2-0.5,0.1c-0.2,0-0.3-0.2-0.4-0.3c-2.6-6.6-3.9-11.9-3.9-15.7c0,0,0-0.4,0-0.4l0-0.5
				C296.1,37.3,292.7,39.7,292.7,43.2z"/>
      <path class="st1" d="M331,58.4c-0.9,0-1.6-0.1-2-0.1c-3.3,0-5.8,1.9-7.7,5.9c1.8-0.3,4-0.5,6.6-0.5h1.8c5.8,0,8.9-2,9.5-6.1
				c-1.9,0.5-3.9,0.8-6,0.8C332.7,58.4,331.9,58.4,331,58.4z"/>
      <path class="st1" d="M343.9,68c-1.3,4.2-2,6.9-2,8c0,0.6,0,2.5,4.8,2.5c1.9,0,3.8-0.2,5.5-0.6c-0.2-0.7-0.4-1.3-0.4-1.9
				c0-2.8,1.8-7.1,5.5-13c3.8-6,7-8.9,10-8.9c0.9,0,1.8,0.5,2.7,1.5c3.4-3.3,5.2-6.4,5.2-9.4c0-0.9-0.3-2-2.8-2
				c-4,0-9.1,4.5-15.2,13.4c-0.1,0.2-0.4,0.3-0.7,0.2c-0.2-0.1-0.4-0.4-0.3-0.7c1.6-5.3,2.4-8.7,2.4-10c0-1.1-0.4-2.7-4.3-2.7
				c-1.8,0-4,0.4-6.5,1c0.3,0.7,0.5,1.4,0.5,2.2C348.4,51.6,346.9,58.4,343.9,68z"/>
      <path class="st1" d="M410.7,57.3c1.3-5.2,2.6-9.1,4.1-11.6c-2.1-0.7-4.2-1.1-6.4-1.1c-1.9,0-3.4,0.5-4.4,1.4
				c-0.2,0.1-0.4,0.2-0.6,0.1c-2.3-1.2-4.9-1.8-7.8-1.8c-6,0-11.2,2.8-15.5,8.5c-4.3,5.7-6.5,11.5-6.5,17.4c0,5.9,2.5,8.8,7.7,8.8
				c5.1,0,10.8-4.5,16.9-13.5c0.1-0.2,0.4-0.3,0.7-0.2c0.2,0.1,0.4,0.4,0.3,0.6c-0.6,3-0.8,5.5-0.8,7.4c0,3.6,2,5.3,6.1,5.3
				c2.1,0,4-0.5,5.7-1.6c-0.9-1.8-1.4-3.8-1.4-6.1C408.6,67.5,409.3,62.9,410.7,57.3z M402.3,53.2c-2.1,3.7-4.8,7.8-8.2,12.3
				c-4.7,6.2-6.5,7-7.4,7c-1.2,0-2.6-0.7-2.6-4.2c0-3.7,1-8,3-12.6c2.1-4.8,4.6-7.2,7.5-7.2c2.5,0,5.1,1.4,7.6,4.1
				C402.4,52.7,402.4,53,402.3,53.2z"/>
      <path class="st1" d="M429.8,75.9c-2.3,3.4-5.1,5.1-8.5,5.1c-1.2,0-2.4-0.3-3.6-0.9c-1.6,1.8-2.4,3.3-2.4,4.4c0,0.6,0,2.2,4.6,2.2
				c5.4,0,13.3-5.8,23.3-17.3c12.6-14.3,15.2-19.5,15.2-21.4c0-1.9-3.1-3-8.8-3.2c0.3,0.9,0.4,1.7,0.4,2.3c0,2.5-1.6,6.2-5,11.2
				l-7.3,10.3c-0.1,0.2-0.4,0.3-0.6,0.2c-0.2,0-0.4-0.2-0.4-0.4c-1-5.3-1.8-11.6-2.5-18.6c-0.7-3.6-2.2-5.4-4.7-5.4
				c-2.8,0-5.5,0.8-8.2,2.2c2.7,3.5,5.5,12.9,8.6,28.7C429.9,75.7,429.8,75.8,429.8,75.9z"/>
		</g>
	</g>
    <g>
		<path class="st0" d="M514.8,61.4c0,2.5-0.4,4.8-1.3,6.9s-2.1,3.9-3.6,5.4c-1.6,1.5-3.4,2.7-5.6,3.6c-2.2,0.9-4.6,1.3-7.3,1.3
			h-13.3V44.3H497c2.7,0,5.1,0.4,7.3,1.3c2.2,0.9,4.1,2.1,5.6,3.6c1.6,1.5,2.8,3.3,3.6,5.4C514.3,56.7,514.8,59,514.8,61.4z
			 M506.6,61.4c0-1.7-0.2-3.2-0.7-4.6c-0.4-1.4-1.1-2.5-1.9-3.5c-0.8-0.9-1.8-1.7-3-2.2c-1.2-0.5-2.5-0.8-4.1-0.8h-5.3v22h5.3
			c1.5,0,2.9-0.3,4.1-0.8c1.2-0.5,2.2-1.2,3-2.2c0.8-0.9,1.5-2.1,1.9-3.5C506.4,64.7,506.6,63.1,506.6,61.4z"/>
      <path class="st0" d="M540.1,72.2v6.3h-20.6V44.3h7.9v27.9H540.1z"/>
      <path class="st0" d="M556.2,44.3c2.4,0,4.5,0.3,6.2,0.9c1.7,0.6,3.2,1.4,4.3,2.4c1.1,1,1.9,2.2,2.5,3.5c0.5,1.4,0.8,2.8,0.8,4.4
			c0,1.7-0.3,3.3-0.8,4.7s-1.4,2.6-2.5,3.7s-2.6,1.8-4.3,2.4c-1.7,0.6-3.8,0.9-6.1,0.9h-4.1v11.4h-7.9V44.3H556.2z M556.2,61.1
			c2.1,0,3.6-0.5,4.5-1.5c0.9-1,1.4-2.4,1.4-4.1c0-0.8-0.1-1.5-0.4-2.1c-0.2-0.6-0.6-1.2-1.1-1.7c-0.5-0.5-1.1-0.8-1.8-1.1
			c-0.7-0.3-1.6-0.4-2.6-0.4h-4.1v10.9H556.2z"/>
<!--      <path class="st0" d="M623.3,44.3l-13.7,34.2h-7.2l-13.7-34.2h6.4c0.7,0,1.2,0.2,1.7,0.5c0.4,0.3,0.7,0.7,1,1.2l6.6,18.3-->
<!--			c0.3,0.8,0.6,1.7,0.9,2.6c0.3,0.9,0.6,1.9,0.8,3c0.2-1,0.5-2,0.7-3c0.3-0.9,0.6-1.8,0.9-2.6l6.6-18.3c0.2-0.4,0.5-0.8,0.9-1.2-->
<!--			c0.4-0.4,1-0.5,1.7-0.5H623.3z"/>-->
<!--      <path class="st0" d="M651.5,74.9c0-0.6,0.1-1.1,0.3-1.6c0.2-0.5,0.5-0.9,0.9-1.3s0.8-0.6,1.3-0.9c0.5-0.2,1-0.3,1.6-0.3-->
<!--			c0.6,0,1.1,0.1,1.6,0.3c0.5,0.2,0.9,0.5,1.3,0.9s0.7,0.8,0.9,1.3c0.2,0.5,0.3,1,0.3,1.6c0,0.6-0.1,1.1-0.3,1.6-->
<!--			c-0.2,0.5-0.5,0.9-0.9,1.3s-0.8,0.6-1.3,0.8c-0.5,0.2-1,0.3-1.6,0.3c-0.6,0-1.1-0.1-1.6-0.3c-0.5-0.2-0.9-0.5-1.3-0.8-->
<!--			s-0.7-0.8-0.9-1.3C651.6,76,651.5,75.4,651.5,74.9z"/>-->
<!--      <path class="st0" d="M687.5,61.4c0,3-0.3,5.6-1,7.8c-0.6,2.2-1.5,4-2.7,5.5c-1.1,1.4-2.5,2.5-4,3.2c-1.6,0.7-3.2,1.1-5.1,1.1-->
<!--			s-3.5-0.4-5-1.1s-2.9-1.8-4-3.2c-1.1-1.4-2-3.3-2.6-5.5c-0.6-2.2-1-4.8-1-7.8s0.3-5.6,1-7.8c0.6-2.2,1.5-4,2.6-5.5s2.5-2.5,4-3.2-->
<!--			c1.5-0.7,3.2-1,5-1s3.5,0.3,5.1,1c1.6,0.7,2.9,1.8,4,3.2c1.1,1.4,2,3.3,2.7,5.5C687.2,55.8,687.5,58.4,687.5,61.4z M680,61.4-->
<!--			c0-2.4-0.1-4.3-0.4-5.8c-0.3-1.5-0.7-2.7-1.2-3.6c-0.5-0.9-1.1-1.5-1.7-1.8c-0.6-0.3-1.3-0.5-1.9-0.5s-1.3,0.2-1.9,0.5-->
<!--			c-0.6,0.3-1.2,0.9-1.6,1.8c-0.5,0.9-0.9,2-1.2,3.6c-0.3,1.5-0.4,3.5-0.4,5.8c0,2.4,0.1,4.3,0.4,5.8s0.7,2.7,1.2,3.6-->
<!--			c0.5,0.9,1,1.5,1.6,1.8c0.6,0.3,1.2,0.5,1.9,0.5s1.3-0.2,1.9-0.5s1.2-0.9,1.7-1.8c0.5-0.9,0.9-2.1,1.2-3.6S680,63.8,680,61.4z"/>-->
	</g>
</g>
<!--  <g>-->
<!--	<path class="st0" d="M645.8,72c0.8,0,1.4,0.2,1.9,0.6c0.5,0.4,0.7,1,0.7,1.7v4.2h-24.1v-2.3c0-0.5,0.1-0.9,0.3-1.5-->
<!--		c0.2-0.5,0.5-1,1-1.4l9.9-9.9c0.8-0.8,1.6-1.7,2.2-2.4s1.1-1.5,1.6-2.3s0.7-1.5,0.9-2.2c0.2-0.7,0.3-1.5,0.3-2.4-->
<!--		c0-1.4-0.3-2.4-1-3.1s-1.6-1.1-3-1.1c-1.1,0-2,0.3-2.7,0.9c-0.7,0.6-1.3,1.3-1.5,2.1c-0.3,0.9-0.8,1.4-1.3,1.7-->
<!--		c-0.5,0.3-1.3,0.3-2.3,0.2l-3.9-0.7c0.3-1.7,0.7-3.2,1.4-4.5c0.7-1.3,1.6-2.3,2.7-3.2c1.1-0.8,2.3-1.5,3.6-1.9s2.8-0.6,4.4-0.6-->
<!--		c1.7,0,3.2,0.2,4.6,0.7c1.4,0.5,2.5,1.2,3.5,2.1c1,0.9,1.7,1.9,2.2,3.1c0.5,1.2,0.8,2.5,0.8,4c0,1.3-0.2,2.4-0.5,3.5-->
<!--		c-0.4,1.1-0.8,2.1-1.4,3c-0.6,1-1.3,1.9-2.1,2.8c-0.8,0.9-1.7,1.8-2.6,2.7l-6.7,6.9c0.9-0.3,1.7-0.5,2.6-0.6-->
<!--		c0.8-0.1,1.6-0.2,2.3-0.2H645.8z"/>-->
<!--</g>-->
</svg>
