<svg version="1.1" id="Layer_1" xmlns="http://www.w3.org/2000/svg" xmlns:xlink="http://www.w3.org/1999/xlink" x="0px"
     y="0px"
     width="128px" height="128px" viewBox="0 0 512 512" xml:space="preserve">
<path d="M310.75,96.688C316.5,87.094,320,76,320,64c0-35.344-28.656-64-64-64s-64,28.656-64,64c0,12,3.5,23.094,9.25,32.688
	C169.125,100.094,144,126.969,144,160c0,35.344,28.656,64,64,64v32h32v256h64v-32h-32v-32h32v-32h-32V256h32v-32
	c35.344,0,64-28.656,64-64C368,126.969,342.875,100.094,310.75,96.688z M256,32c17.625,0,32,14.375,32,32s-14.375,32-32,32
	s-32-14.375-32-32S238.375,32,256,32z M176,160c0-17.625,14.375-32,32-32s32,14.375,32,32s-14.375,32-32,32S176,177.625,176,160z
	 M304,192c-17.625,0-32-14.375-32-32s14.375-32,32-32s32,14.375,32,32S321.625,192,304,192z"/>
</svg>
