<svg version="1.1" xmlns="http://www.w3.org/2000/svg" xmlns:xlink="http://www.w3.org/1999/xlink" width="128"
     height="128" viewBox="0 0 512 512">
  <path
    d="M313.938 85.801v62.249c53.524 22.61 91.065 75.571 91.065 137.298 0 82.288-66.704 148.992-148.992 148.992-82.299 0-148.992-66.704-148.992-148.992 0-61.726 37.53-114.688 91.023-137.298v-62.269c-86.558 25.118-149.832 104.93-149.832 199.588 0 114.77 93.010 207.79 207.769 207.79 114.8 0 207.821-93.020 207.821-207.79 0-94.659-63.324-174.469-149.863-199.567z"/>
  <path d="M224.532 18.841h62.915v195.328h-62.915v-195.328z"/>
</svg>
